<svg width="20" height="50" viewBox="0 0 20 50" fill="none" xmlns="http://www.w3.org/2000/svg">
  <path d="M16.6914 0C17.5844 0 18.4607 0.0840442 19.3193 0.25293C20.2122 0.388038 20.9852 0.591126 21.6377 0.861328V9.12012C21.0195 8.78235 20.3492 8.52826 19.6279 8.35938C18.9068 8.19055 18.2198 8.10645 17.5674 8.10645C16.3654 8.10647 15.4038 8.4446 14.6826 9.12012C13.9958 9.76185 13.6524 10.6904 13.6523 11.9062V12.2607H21.6377V19.8613H13.6523V37.5938H4.37891V19.8613H0V12.2607H4.37891V12.1094C4.37891 9.84631 4.82578 7.80248 5.71875 5.97852C6.61171 4.15465 7.9679 2.70193 9.78809 1.62109C11.6083 0.540267 13.9096 0.00004 16.6914 0Z" fill="url(#paint0_linear)"/>
  <defs>
    <linearGradient id="paint0_linear" x1="8" y1="-5" x2="12" y2="40" gradientUnits="userSpaceOnUse">
      <stop stop-color="#383BFE"/>
      <stop offset="1" stop-color="#4A4DFF"/>
    </linearGradient>
  </defs>
</svg>
