<svg width="118" height="49" viewBox="0 0 118 49" fill="none" xmlns="http://www.w3.org/2000/svg">
<path d="M103.285 11.5479C105.943 11.5479 108.329 12.151 110.441 13.3574C112.588 14.5639 114.275 16.1728 115.502 18.1836C116.729 20.1609 117.342 22.3729 117.342 24.8193C117.342 27.5004 116.78 29.8466 115.655 31.8574C114.531 33.8683 112.946 35.4272 110.901 36.5332C108.891 37.6391 106.522 38.1914 103.796 38.1914C102.16 38.1914 100.593 37.8395 99.0938 37.1357C98.8649 37.0206 98.6443 36.8974 98.4287 36.7725V49H89.2285V24.8193C89.2286 22.2389 89.8249 19.9597 91.0176 17.9824C92.2444 15.9718 93.9137 14.3962 96.0264 13.2568C98.1392 12.1174 100.559 11.5479 103.285 11.5479ZM45.6777 11.498C48.3357 11.498 50.7212 12.1012 52.834 13.3076C54.9809 14.5141 56.6677 16.1229 57.8945 18.1338C59.1213 20.1445 59.7353 22.3729 59.7354 24.8193C59.7354 27.2658 59.1213 29.5113 57.8945 31.5557C56.6677 33.5665 54.9809 35.1753 52.834 36.3818C50.7212 37.5883 48.3357 38.1914 45.6777 38.1914C43.0198 38.1914 40.6343 37.5883 38.5215 36.3818C36.4087 35.1753 34.7218 33.5665 33.4609 31.5557C32.2342 29.5114 31.6211 27.2658 31.6211 24.8193C31.6211 22.373 32.2343 20.1445 33.4609 18.1338C34.7218 16.123 36.4087 14.5141 38.5215 13.3076C40.6343 12.1011 43.0198 11.4981 45.6777 11.498ZM74.3975 11.498C77.0554 11.498 79.4409 12.1012 81.5537 13.3076C83.7006 14.5141 85.3875 16.1229 86.6143 18.1338C87.841 20.1446 88.455 22.3729 88.4551 24.8193C88.4551 27.2658 87.841 29.5113 86.6143 31.5557C85.3875 33.5665 83.7006 35.1753 81.5537 36.3818C79.4409 37.5883 77.0554 38.1914 74.3975 38.1914C71.7395 38.1914 69.354 37.5883 67.2412 36.3818C65.1285 35.1753 63.4415 33.5664 62.1807 31.5557C60.954 29.5114 60.3408 27.2658 60.3408 24.8193C60.3409 22.373 60.954 20.1445 62.1807 18.1338C63.4415 16.123 65.1285 14.5141 67.2412 13.3076C69.354 12.1011 71.7395 11.4981 74.3975 11.498ZM29.168 37.3018H19.9668L25.2832 0.603516H33.9727L29.168 37.3018ZM16.5615 0C17.4475 0 18.317 0.0834063 19.1689 0.250977C20.0548 0.38502 20.8214 0.586439 21.4688 0.854492V9.04883C20.8555 8.71376 20.1911 8.46248 19.4756 8.29492C18.76 8.12735 18.0781 8.04297 17.4307 8.04297C16.238 8.04298 15.284 8.3786 14.5684 9.04883C13.8869 9.68555 13.5459 10.6071 13.5459 11.8135V12.166H21.4688V19.7061H13.5459V37.3008H4.34473V19.7061H0V12.166H4.34473V12.0146C4.34475 9.76927 4.78783 7.74136 5.67383 5.93164C6.55984 4.12201 7.9059 2.6808 9.71191 1.6084C11.518 0.535975 13.8013 2.79763e-05 16.5615 0ZM45.6777 19.9932C44.7236 19.9932 43.8717 20.2118 43.1221 20.6475C42.4067 21.0831 41.8444 21.6692 41.4355 22.4062C41.0266 23.1436 40.8223 23.9652 40.8223 24.8701C40.8223 25.7414 41.0267 26.546 41.4355 27.2832C41.8444 28.0203 42.4067 28.6064 43.1221 29.042C43.8717 29.4776 44.7236 29.6963 45.6777 29.6963C46.6659 29.6963 47.5178 29.4776 48.2334 29.042C48.949 28.6063 49.512 28.0205 49.9209 27.2832C50.3298 26.546 50.5341 25.7414 50.5342 24.8701C50.5342 23.9652 50.3298 23.1436 49.9209 22.4062C49.512 21.669 48.949 21.0831 48.2334 20.6475C47.5178 20.2118 46.666 19.9932 45.6777 19.9932ZM74.3975 19.9932C73.4434 19.9932 72.5914 20.2118 71.8418 20.6475C71.1264 21.0831 70.5641 21.6692 70.1553 22.4062C69.7463 23.1436 69.542 23.9652 69.542 24.8701C69.542 25.7414 69.7464 26.546 70.1553 27.2832C70.5641 28.0203 71.1264 28.6064 71.8418 29.042C72.5914 29.4776 73.4434 29.6963 74.3975 29.6963C75.3857 29.6963 76.2375 29.4776 76.9531 29.042C77.6687 28.6063 78.2317 28.0204 78.6406 27.2832C79.0495 26.546 79.2539 25.7414 79.2539 24.8701C79.2539 23.9652 79.0496 23.1436 78.6406 22.4062C78.2317 21.669 77.6687 21.0831 76.9531 20.6475C76.2375 20.2118 75.3857 19.9932 74.3975 19.9932ZM103.285 20.0439C102.331 20.0439 101.479 20.2617 100.729 20.6973C100.014 21.1329 99.4509 21.7197 99.042 22.457C98.6332 23.1608 98.4287 23.9654 98.4287 24.8701C98.4287 25.7414 98.6331 26.546 99.042 27.2832C99.4509 28.0205 100.014 28.6063 100.729 29.042C101.479 29.4777 102.331 29.6963 103.285 29.6963C104.273 29.6963 105.125 29.4777 105.841 29.042C106.556 28.6064 107.118 28.0203 107.527 27.2832C107.936 26.546 108.142 25.7414 108.142 24.8701C108.142 23.9652 107.936 23.1608 107.527 22.457C107.118 21.7197 106.556 21.1329 105.841 20.6973C105.125 20.2616 104.273 20.044 103.285 20.0439Z" fill="url(#paint0_radial_1963_4261)"/>
<defs>
<radialGradient id="paint0_radial_1963_4261" cx="0" cy="0" r="1" gradientTransform="matrix(-60.734 -29.5833 70.8441 -60.744 96.9682 50.9167)" gradientUnits="userSpaceOnUse">
<stop stop-color="#FF8030"/>
<stop offset="1" stop-color="#383BFE"/>
</radialGradient>
</defs>
</svg>
