<svg width="45" height="45" viewBox="0 0 45 45" fill="none" xmlns="http://www.w3.org/2000/svg">
<path d="M22.5 16.875V3.75L18.75 7.5" stroke="white" stroke-width="2.5" stroke-linecap="round" stroke-linejoin="round"/>
<path d="M22.5 3.75L26.25 7.5" stroke="white" stroke-width="2.5" stroke-linecap="round" stroke-linejoin="round"/>
<path d="M3.71338 24.375H11.9821C12.6946 24.375 13.3321 24.7688 13.6509 25.4063L15.8446 29.7938C16.4821 31.0688 17.7759 31.875 19.2009 31.875H25.8196C27.2446 31.875 28.5384 31.0688 29.1759 29.7938L31.3696 25.4063C31.6884 24.7688 32.3446 24.375 33.0384 24.375H41.2134" stroke="white" stroke-opacity="0.8" stroke-width="2.5" stroke-linecap="round" stroke-linejoin="round"/>
<path d="M13.125 9.62036C6.4875 10.5954 3.75 14.4954 3.75 22.5016V28.1266C3.75 37.5016 7.5 41.2516 16.875 41.2516H28.125C37.5 41.2516 41.25 37.5016 41.25 28.1266V22.5016C41.25 14.4954 38.5125 10.5954 31.875 9.62036" stroke="white" stroke-opacity="0.8" stroke-width="2.5" stroke-linecap="round" stroke-linejoin="round"/>
</svg>
